<?xml version="1.0" encoding="UTF-8"?>
<!DOCTYPE svg PUBLIC "-//W3C//DTD SVG 1.1//EN" "http://www.w3.org/Graphics/SVG/1.1/DTD/svg11.dtd">
<!-- Creator: CorelDRAW X7 -->
<svg xmlns="http://www.w3.org/2000/svg" xml:space="preserve" width="207.138mm" height="156.679mm" version="1.1" style="shape-rendering:geometricPrecision; text-rendering:geometricPrecision; image-rendering:optimizeQuality; fill-rule:evenodd; clip-rule:evenodd"
viewBox="0 0 22362 16915"
 xmlns:xlink="http://www.w3.org/1999/xlink">
 <defs>
  <style type="text/css">
   <![CDATA[
    .fil0 {fill:#586220}
    .fil1 {fill:#824019}
   ]]>
  </style>
 </defs>
 <g id="Layer_x0020_1">
  <metadata id="CorelCorpID_0Corel-Layer"/>
  <g id="_446018032">
   <path class="fil0" d="M4795 15986c-363,0 -631,7 -631,-379l0 -2019c0,-190 863,-134 1293,246 541,479 641,2152 -662,2152zm-1489 -2625c194,94 378,-94 378,328 0,401 53,2079 -75,2347 -69,16 -55,11 -130,22 -129,20 -59,-33 -123,54 66,32 907,43 1060,50 321,16 53,46 507,3 1941,-184 1823,-2813 49,-2855 -74,-2 -150,5 -224,-3 -381,-43 -236,4 -635,4l-555 0c-100,0 -90,-23 -151,-18 -93,7 -79,9 -101,68z"/>
   <path class="fil0" d="M7041 14598c0,-1728 1968,-1415 1968,126 0,357 -10,608 -184,901 -309,523 -1136,478 -1518,-83 -166,-243 -266,-551 -266,-944zm832 1590c496,0 906,-54 1256,-435 630,-685 599,-2054 -495,-2420 -1333,-446 -2477,694 -2023,1921 94,254 242,486 447,638 209,155 466,296 815,296z"/>
   <path class="fil0" d="M16282 16281l3 76 1034 -47c-21,-160 -51,-64 -309,-112 -122,-229 -10,-805 17,-1073l70 -927c199,209 681,1796 1747,2374 141,76 831,401 977,333 -39,-123 -96,-61 -352,-197 -390,-207 -640,-441 -896,-818 -502,-743 -727,-1347 -1121,-2053 -286,-514 -728,-1056 -1244,-1337 -183,-100 -619,-255 -890,-243 16,122 -36,63 237,138 196,54 338,125 494,252 106,87 118,74 215,189 384,452 199,199 475,697 70,126 103,125 91,273 -14,180 -187,2211 -257,2355 -55,113 -155,82 -291,120z"/>
   <path class="fil0" d="M101 13538c0,443 112,704 458,980 336,269 787,599 775,987 -18,570 -1004,709 -1172,16 -14,-59 -20,-114 -27,-150 -23,-113 22,-89 -85,-117 -50,215 -50,490 -50,732 0,306 1792,482 1792,-707 0,-625 -530,-972 -956,-1316 -586,-472 -230,-930 123,-930 349,0 631,139 631,555 164,-13 86,-179 126,-656 -97,-65 -156,-77 -284,-94 -398,-53 -672,-59 -1009,164 -144,96 -322,310 -322,536z"/>
   <path class="fil0" d="M1943 13361c140,68 303,-22 303,202 0,367 50,2264 -51,2473 -251,59 -219,-23 -252,101l1186 0 0 -76c-177,0 -230,9 -353,-50 -75,-321 -90,-2406 -5,-2554 66,-117 141,-40 257,-96 -48,-134 -48,-50 -227,-50l-740 -20c-85,-4 -101,5 -118,70z"/>
   <path class="fil0" d="M10735 14790l0 814c0,154 9,269 27,343 17,75 49,137 96,186 40,42 88,73 142,94 53,20 123,33 211,37l0 51 -1442 0 0 -51c87,-4 157,-17 212,-37 53,-21 100,-52 141,-94 48,-49 80,-110 97,-184 17,-74 25,-188 25,-345l0 -1670c0,-130 -5,-230 -17,-301 -12,-70 -31,-127 -58,-170 -39,-61 -89,-106 -149,-136 -60,-29 -139,-47 -236,-53l-15 0 0 -51 1363 0c238,0 413,12 526,36 113,24 216,73 310,145 214,163 321,381 321,652 0,277 -109,479 -327,607 -112,67 -250,107 -411,120 -52,5 -176,7 -372,7l-444 0zm0 -70l222 0c150,0 265,-10 346,-33 81,-21 153,-62 217,-121 147,-135 221,-314 221,-538 0,-124 -21,-238 -64,-341 -43,-104 -105,-189 -185,-254 -92,-77 -202,-122 -328,-136 -35,-3 -114,-4 -238,-4l-191 0 0 1427zm1819 68c0,-253 54,-489 163,-705 109,-217 267,-406 475,-567 156,-120 324,-211 503,-275 180,-64 361,-97 543,-97 233,0 457,51 675,153 217,102 408,246 571,431 265,302 398,646 398,1031 0,193 -35,380 -104,560 -70,179 -171,343 -304,491 -163,184 -355,327 -578,428 -222,101 -456,151 -698,151 -240,0 -470,-49 -689,-147 -219,-98 -408,-237 -566,-417 -125,-140 -222,-299 -289,-479 -67,-178 -100,-364 -100,-558zm547 33c0,439 119,808 357,1109 108,134 221,232 342,293 120,61 259,92 416,92 158,0 298,-30 418,-90 120,-61 235,-159 343,-295 239,-302 358,-675 358,-1118 0,-243 -33,-473 -99,-690 -65,-217 -157,-401 -277,-552 -97,-124 -204,-215 -323,-271 -118,-57 -259,-85 -420,-85 -160,0 -299,28 -416,84 -118,56 -226,146 -325,272 -119,149 -212,333 -277,551 -65,217 -97,451 -97,700zm3940 -1598l260 0c182,0 302,1 360,2 234,11 417,43 550,95 150,61 266,151 348,272 82,119 123,259 123,418 0,235 -88,424 -267,566 -54,42 -114,77 -180,104 -62,26 -143,50 -244,73 -90,1 -197,10 -320,36 -220,47 -327,9 -379,-36 173,-1 298,-12 375,-32 81,-21 158,-65 229,-131 160,-152 239,-339 239,-563 0,-119 -23,-231 -69,-337 -47,-105 -111,-191 -193,-259 -64,-52 -139,-87 -227,-108 -89,-20 -215,-30 -377,-30l-93 0 0 123c-41,-69 -90,-136 -135,-193zm5321 3092l-1489 0 0 -51c134,-12 229,-34 281,-68 94,-58 141,-140 141,-245 0,-61 -21,-144 -63,-248l-39 -95 -217 -535 -999 0 -118 313 -57 140c-68,166 -102,296 -102,391 0,57 12,109 38,157 25,48 58,88 100,118 60,41 136,65 228,72l0 51 -879 0 -14 -71c31,-10 61,-23 89,-38 60,-35 119,-92 176,-168 49,-62 96,-142 142,-240 46,-97 107,-243 182,-438l828 -2137 130 0 987 2381c75,180 133,309 177,386 44,77 92,135 143,175 36,27 78,48 124,62 47,14 117,26 211,37l0 51zm-1422 -1335l-475 -1174 -451 1174 926 0z"/>
  </g>
  <g id="_446018440">
   <path class="fil1" d="M10737 3179c695,-1 1076,567 1044,1094 -36,591 -586,1020 -1029,1016 -1498,-12 -1383,-2109 -15,-2110zm3 -249c-1692,2 -1834,2594 19,2610 548,5 1228,-526 1273,-1257 39,-651 -432,-1354 -1292,-1353zm-1 119c-1538,2 -1667,2357 16,2371 498,4 1117,-478 1157,-1142 36,-591 -393,-1230 -1173,-1229zm4645 -38c218,-472 -3,-870 -494,-983 -1031,-237 -229,668 -1722,1327 -265,-225 -309,-445 -753,-705 -325,-192 -1878,-667 -2266,-680 -482,-17 -633,138 -955,170 -128,-203 -179,-409 -277,-654 -162,-408 -103,-193 -5,-648 136,-630 -526,-1003 -1002,-766 -458,229 -529,990 -8,1254 474,241 378,-9 560,466 76,198 147,468 218,572 -490,-103 -1031,-375 -1465,-347l-116 391c313,243 925,365 1371,499 49,404 -32,472 108,887 575,1711 -3305,4624 -877,6177 331,-1082 572,-1998 1802,-1596 1164,379 844,1260 524,2307 1794,62 1793,-1728 1955,-2903 199,-1450 69,-2157 818,-2742 305,-238 314,-382 539,-641 443,137 1019,380 1421,354l109 -393c-336,-264 -937,-341 -1396,-522l796 -514c473,55 871,221 1115,-310z"/>
   <path class="fil1" d="M7653 11176c-147,838 975,1256 1479,857 326,-258 794,-1879 891,-2389 88,-469 -7,-688 -396,-892 -396,-208 -868,-231 -1098,-21 -278,255 -791,1965 -876,2445z"/>
   <path class="fil1" d="M9930 1434c-123,275 -83,87 26,205 1179,160 1965,404 2974,978 181,-903 -48,-2127 -779,-2459 -874,-398 -1886,462 -2221,1276z"/>
   <path class="fil1" d="M9956 1639c-109,-118 -149,70 -26,-205l-181 249 207 -44z"/>
  </g>
 </g>
</svg>
